{
	"asset":{
		"version":"2.0",
		"generator":"Created using the official Cinema 4D glTF Exporter 1.000x287526"
	},
	"scenes":[{
		"nodes":[0]
	}],
	"nodes":[{
		"name":"01",
		"translation":[0.0,
		0.0,
		0.0],
		"rotation":[1.0,
		-6.123234262925839e-17,
		6.123234262925839e-17,
		6.123234262925839e-17],
		"scale":[1.0,
		1.0,
		1.0],
		"mesh":0
	}],
	"meshes":[{
		"primitives":[{
			"attributes":{
				"POSITION":1,
				"NORMAL":2,
				"TEXCOORD_0":3
			},
			"indices":0,
			"material":0
		}]
	}],
	"accessors":[{
		"bufferView":0,
		"type":"SCALAR",
		"componentType":5123,
		"count":5454,
		"min":[0],
		"byteOffset":0,
		"max":[2644]
	},
	{
		"bufferView":1,
		"type":"VEC3",
		"componentType":5126,
		"count":2645,
		"min":[-0.4749999940395355,
		-0.011300000362098217,
		-0.4749999940395355],
		"byteOffset":0,
		"max":[0.4749999940395355,
		0.05152423307299614,
		0.4749999940395355]
	},
	{
		"bufferView":1,
		"type":"VEC3",
		"componentType":5126,
		"count":2645,
		"min":[-1.0,
		-1.0,
		-1.0],
		"byteOffset":12,
		"max":[1.0,
		1.0,
		1.0]
	},
	{
		"bufferView":1,
		"type":"VEC2",
		"componentType":5126,
		"count":2645,
		"min":[0.004494029097259045,
		0.004494029097259045],
		"byteOffset":24,
		"max":[0.9955059885978699,
		0.9932152032852173]
	}],
	"bufferViews":[{
		"buffer":0,
		"byteOffset":0,
		"byteLength":10908,
		"target":34963
	},
	{
		"buffer":0,
		"byteOffset":10908,
		"byteLength":84640,
		"target":34962,
		"byteStride":32
	}],
	"buffers":[{
		"uri":"data:application/octet-stream;base64,",
		"byteLength":95548
	}],
	"images":[{
		"uri":"data:image/jpeg;base64,"
	}],
	"samplers":[{
		"magFilter":9729,
		"minFilter":9729,
		"wrapS":10497,
		"wrapT":10497
	}],
	"textures":[{
		"sampler":0,
		"source":0
	}],
	"materials":[{
		"pbrMetallicRoughness":{
			"baseColorTexture":{
				"index":0
			},
			"baseColorFactor":[1.0,
			1.0,
			1.0,
			1.0],
			"metallicFactor":0.0,
			"roughnessFactor":0.5
		},
		"emissiveFactor":[0.0,
		0.0,
		0.0],
		"alphaMode":"OPAQUE",
		"doubleSided":true,
		"name":"Mat"
	}]
}